<svg xmlns="http://www.w3.org/2000/svg" viewBox="0 0 241 226.5"><defs><style>.cls-1{opacity:0.3;}.cls-2,.cls-3{fill-rule:evenodd;}.cls-3{fill:#fff;}</style></defs><title>Asset 1</title><g id="Layer_2" data-name="Layer 2"><g id="Layer_1-2" data-name="Layer 1"><rect class="cls-1" width="241" height="226.5" rx="37.75"/><path class="cls-2" d="M0,190V36.46A36.47,36.47,0,0,1,36.46,0h69V226.5h-69A36.47,36.47,0,0,1,0,190Z"/><path class="cls-3" d="M20,36.75A10.75,10.75,0,0,1,30.75,26h44a10.75,10.75,0,0,1,0,21.5h-44A10.75,10.75,0,0,1,20,36.75Z"/><path class="cls-3" d="M20,75.5a11,11,0,0,1,11-11H74.5a11,11,0,0,1,0,22H31A11,11,0,0,1,20,75.5Z"/><path class="cls-3" d="M20,114.25A10.75,10.75,0,0,1,30.75,103.5h44a10.75,10.75,0,0,1,0,21.5h-44A10.75,10.75,0,0,1,20,114.25Z"/></g></g></svg>